/* XPM */
static char * color_scheme_arc_xpm[] = {
"20 20 4 1",
" 	c None",
".	c #1B1E24",
"+	c #383C4A",
"@	c #5924E2",
"....................",
"....................",
"..++++++++@@@@@@@@..",
"..++++++++@@@@@@@@..",
"..++++++++@@@@@@@@..",
"..++++++++@@@@@@@@..",
"..++++++++@@@@@@@@..",
"..++++++++@@@@@@@@..",
"..++++++++@@@@@@@@..",
"..++++++++@@@@@@@@..",
"..++++++++@@@@@@@@..",
"..++++++++@@@@@@@@..",
"..++++++++@@@@@@@@..",
"..++++++++@@@@@@@@..",
"..++++++++@@@@@@@@..",
"..++++++++@@@@@@@@..",
"..++++++++@@@@@@@@..",
"..++++++++@@@@@@@@..",
"....................",
"...................."};
