/* XPM */
static char * color_scheme_neptune_xpm[] = {
"20 20 169 2",
"  	c None",
". 	c #2F275B",
"+ 	c #000000",
"@ 	c #141128",
"# 	c #372F6C",
"$ 	c #4D4297",
"% 	c #574AAD",
"& 	c #574AA9",
"* 	c #4A3E91",
"= 	c #332B63",
"- 	c #120F23",
"; 	c #372F6E",
"> 	c #5D50B8",
", 	c #5C4EB5",
"' 	c #5A4DB1",
") 	c #594BAF",
"! 	c #584BAB",
"~ 	c #5748A8",
"{ 	c #5548A5",
"] 	c #5446A2",
"^ 	c #31285D",
"/ 	c #433A85",
"( 	c #5D50B7",
"_ 	c #5B4EB4",
": 	c #5B4DB1",
"< 	c #594BAD",
"[ 	c #5649A7",
"} 	c #5647A5",
"| 	c #53459F",
"1 	c #52439B",
"2 	c #392F6D",
"3 	c #372F6D",
"4 	c #5D4FB6",
"5 	c #5A4DB0",
"6 	c #574AAA",
"7 	c #5749A7",
"8 	c #5548A4",
"9 	c #5345A1",
"0 	c #53459E",
"a 	c #52429B",
"b 	c #504198",
"c 	c #4F4095",
"d 	c #2D2556",
"e 	c #141127",
"f 	c #5C50B6",
"g 	c #5C4EB3",
"h 	c #584CAD",
"i 	c #584AAA",
"j 	c #5649A6",
"k 	c #5547A4",
"l 	c #5346A1",
"m 	c #52449E",
"n 	c #51429B",
"o 	c #504197",
"p 	c #4D3E91",
"q 	c #4D3C8E",
"r 	c #100C1D",
"s 	c #372E6B",
"t 	c #5B4EB3",
"u 	c #594CB0",
"v 	c #584BAD",
"w 	c #584AA9",
"x 	c #5648A7",
"y 	c #5546A3",
"z 	c #5445A0",
"A 	c #52449D",
"B 	c #51429A",
"C 	c #4F3F94",
"D 	c #4E3E91",
"E 	c #4D3D8D",
"F 	c #4B3B8A",
"G 	c #2B224F",
"H 	c #4C4196",
"I 	c #594CAF",
"J 	c #584BAC",
"K 	c #5749A9",
"L 	c #5648A6",
"M 	c #5447A3",
"N 	c #52449C",
"O 	c #504196",
"P 	c #4F3F93",
"Q 	c #4D3E90",
"R 	c #4C3C8D",
"S 	c #4A3A87",
"T 	c #3C2F6F",
"U 	c #5749AA",
"V 	c #584AAC",
"W 	c #5749A8",
"X 	c #5547A5",
"Y 	c #5546A2",
"Z 	c #5344A0",
"` 	c #52439C",
" .	c #514299",
"..	c #4F3F92",
"+.	c #4E3D90",
"@.	c #4C3C8C",
"#.	c #4A3B8A",
"$.	c #493987",
"%.	c #483884",
"&.	c #45347C",
"*.	c #5547A6",
"=.	c #504298",
"-.	c #504095",
";.	c #4E3F93",
">.	c #4D3D8F",
",.	c #4A3A89",
"'.	c #4A3986",
").	c #483883",
"!.	c #473680",
"~.	c #433379",
"{.	c #493C8D",
"].	c #5445A1",
"^.	c #52459E",
"/.	c #51439C",
"(.	c #514298",
"_.	c #4E3E92",
":.	c #4D3D8E",
"<.	c #4A3A88",
"[.	c #493986",
"}.	c #483882",
"|.	c #47367F",
"1.	c #392B66",
"2.	c #322A61",
"3.	c #53449E",
"4.	c #514198",
"5.	c #4F4094",
"6.	c #4E3F91",
"7.	c #4C3B8B",
"8.	c #4A3B89",
"9.	c #493885",
"0.	c #483782",
"a.	c #46347C",
"b.	c #443378",
"c.	c #271D45",
"d.	c #110E22",
"e.	c #4B3C8A",
"f.	c #483984",
"g.	c #473782",
"h.	c #46367E",
"i.	c #45347B",
"j.	c #443278",
"k.	c #433175",
"l.	c #0E0A18",
"m.	c #4B3B8B",
"n.	c #493988",
"o.	c #493884",
"p.	c #483781",
"q.	c #47357E",
"r.	c #261C43",
"s.	c #372D69",
"t.	c #4E3E90",
"u.	c #473780",
"v.	c #46367D",
"w.	c #44347A",
"x.	c #433377",
"y.	c #423174",
"z.	c #2F2251",
"A.	c #2D2353",
"B.	c #4B3B89",
"C.	c #46357D",
"D.	c #433277",
"E.	c #261C42",
"F.	c #0F0C1C",
"G.	c #2A214D",
"H.	c #3B2D6B",
"I.	c #443379",
"J.	c #433176",
"K.	c #392963",
"L.	c #271C44",
". . . . . . . . . . . . . . . . . . . . ",
". + + + + + + + + + + + + + + + + + + . ",
". + + + + + @ # $ % & * = - + + + + + . ",
". + + + + ; > , ' ) ! ~ { ] ^ + + + + . ",
". + + + / ( _ : < ! [ } ] | 1 2 + + + . ",
". + + 3 4 _ 5 < 6 7 8 9 0 a b c d + + . ",
". + e f g 5 h i j k l m n o c p q r + . ",
". + s t u v w x y z A B o C D E F G + . ",
". + H I J K L M | N B O P Q R F S T + . ",
". + U V W X Y Z `  .O ..+.@.#.$.%.&.+ . ",
". + *.W } Y 0 ` =.-.;.>.@.,.'.).!.~.+ . ",
". + {.k ].^./.(.-._.:.@.<.[.}.|.&.1.+ . ",
". + 2.].3.1 4.5.6.>.7.8.9.0.|.a.b.c.+ . ",
". + d.3.B o c D :.e.<.f.g.h.i.j.k.l.+ . ",
". + + . o C D R m.n.o.p.q.i.b.k.r.+ + . ",
". + + + s.t.R F $.%.u.v.w.x.y.z.+ + + . ",
". + + + + A.B.$.).!.C.w.D.y.E.+ + + + . ",
". + + + + + F.G.H.I.J.K.L.l.+ + + + + . ",
". + + + + + + + + + + + + + + + + + + . ",
". . . . . . . . . . . . . . . . . . . . "};
