/* XPM */
static char * color_scheme_solarized_light_xpm[] = {
"20 20 4 1",
" 	c None",
".	c #586E75",
"+	c #F9F2DF",
"@	c #657B83",
"....................",
"....................",
"..++++++++@@@@@@@@..",
"..++++++++@@@@@@@@..",
"..++++++++@@@@@@@@..",
"..++++++++@@@@@@@@..",
"..++++++++@@@@@@@@..",
"..++++++++@@@@@@@@..",
"..++++++++@@@@@@@@..",
"..++++++++@@@@@@@@..",
"..++++++++@@@@@@@@..",
"..++++++++@@@@@@@@..",
"..++++++++@@@@@@@@..",
"..++++++++@@@@@@@@..",
"..++++++++@@@@@@@@..",
"..++++++++@@@@@@@@..",
"..++++++++@@@@@@@@..",
"..++++++++@@@@@@@@..",
"....................",
"...................."};
