/* XPM */
static char * color_scheme_venus_xpm[] = {
"20 20 173 2",
"  	c None",
". 	c #4E3C0A",
"+ 	c #000000",
"@ 	c #5D4809",
"# 	c #C99D15",
"$ 	c #E9B419",
"% 	c #ECB71A",
"& 	c #E8B41A",
"* 	c #E3AE19",
"= 	c #C29615",
"- 	c #594509",
"; 	c #C99C15",
"> 	c #F0BA1A",
", 	c #EDB81A",
"' 	c #EAB61B",
") 	c #E6B21A",
"! 	c #E3AF1A",
"~ 	c #E1AD1A",
"{ 	c #DEAB1A",
"] 	c #BC9115",
"^ 	c #DDAB17",
"/ 	c #EFB91A",
"( 	c #EDB71B",
"_ 	c #E9B51A",
": 	c #E7B41A",
"< 	c #E4B11A",
"[ 	c #E2AF1B",
"} 	c #DFAC1A",
"| 	c #DDAB1A",
"1 	c #DBA81B",
"2 	c #D7A71B",
"3 	c #C89A17",
"4 	c #C59915",
"5 	c #EEB81A",
"6 	c #EBB71B",
"7 	c #E8B51A",
"8 	c #E7B21B",
"9 	c #E4B01A",
"0 	c #E1AE1A",
"a 	c #DEAC1A",
"b 	c #DCA91A",
"c 	c #D9A81B",
"d 	c #D7A61A",
"e 	c #D5A31A",
"f 	c #D2A21B",
"g 	c #B28915",
"h 	c #EBB61B",
"i 	c #E8B41B",
"j 	c #E5B11A",
"k 	c #E3AF1B",
"l 	c #E0AD1A",
"m 	c #D9A71B",
"n 	c #D7A51A",
"o 	c #D4A31B",
"p 	c #D1A11A",
"q 	c #CE9F1A",
"r 	c #CC9C1B",
"s 	c #513E09",
"t 	c #C19516",
"u 	c #EAB61A",
"v 	c #DEAA1A",
"w 	c #DAA91A",
"x 	c #D8A71A",
"y 	c #D6A41A",
"z 	c #D3A21A",
"A 	c #D1A01B",
"B 	c #CE9E1B",
"C 	c #CB9C1B",
"D 	c #C9991B",
"E 	c #AA8216",
"F 	c #E0AD19",
"G 	c #E7B21A",
"H 	c #E4B01B",
"I 	c #DFAC1B",
"J 	c #DDAA1A",
"K 	c #D8A61A",
"L 	c #D2A11A",
"M 	c #CF9F1B",
"N 	c #CD9D1B",
"O 	c #CB9B1B",
"P 	c #C8991B",
"Q 	c #C5971A",
"R 	c #C09319",
"S 	c #E3B01A",
"T 	c #E0AE1A",
"U 	c #DFAB1A",
"V 	c #D7A51B",
"W 	c #D2A01B",
"X 	c #CF9E1B",
"Y 	c #CA9A1B",
"Z 	c #C8981B",
"` 	c #C5961A",
" .	c #C2931B",
"..	c #BF911A",
"+.	c #E2AE1A",
"@.	c #E0AD1B",
"#.	c #DBA91A",
"$.	c #D8A71B",
"%.	c #D6A41B",
"&.	c #D4A21B",
"*.	c #D0A01B",
"=.	c #CC9C1A",
"-.	c #C99A1A",
";.	c #C7981B",
">.	c #C4961A",
",.	c #C1931B",
"'.	c #BF911B",
").	c #BD8F1A",
"!.	c #D5A619",
"~.	c #DDAA1B",
"{.	c #DAA81B",
"].	c #D5A41B",
"^.	c #D09F1B",
"/.	c #CD9E1B",
"(.	c #CA9B1B",
"_.	c #C6971A",
":.	c #C3941A",
"<.	c #BE901B",
"[.	c #BC8E1B",
"}.	c #B6891A",
"|.	c #B18815",
"1.	c #DAA71B",
"2.	c #D6A51B",
"3.	c #D5A31B",
"4.	c #CF9F1A",
"5.	c #CD9C1A",
"6.	c #C4961B",
"7.	c #C2941B",
"8.	c #C0921A",
"9.	c #BD901B",
"0.	c #BB8E1B",
"a.	c #B88B1B",
"b.	c #9B7416",
"c.	c #D3A31A",
"d.	c #CB9C1A",
"e.	c #C99A1B",
"f.	c #C4951B",
"g.	c #BF921B",
"h.	c #BC8F1B",
"i.	c #BA8D1A",
"j.	c #B78B1B",
"k.	c #B5891B",
"l.	c #463509",
"m.	c #A98115",
"n.	c #CE9E1A",
"o.	c #C3951B",
"p.	c #BE911B",
"q.	c #B98D1B",
"r.	c #B68A1B",
"s.	c #B4881B",
"t.	c #967116",
"u.	c #B78C17",
"v.	c #CA9B1A",
"w.	c #C5961B",
"x.	c #C3941B",
"y.	c #BB8D1A",
"z.	c #B88C1A",
"A.	c #B6891B",
"B.	c #B3881B",
"C.	c #A37A17",
"D.	c #A07915",
"E.	c #B88B1A",
"F.	c #B5881A",
"G.	c #B2871A",
"H.	c #936F16",
"I.	c #45350A",
"J.	c #997416",
"K.	c #B4881A",
"L.	c #B98C1B",
"M.	c #B58A1B",
"N.	c #AD831A",
"O.	c #926E16",
"P.	c #42310A",
". . . . . . . . . . . . . . . . . . . . ",
". + + + + + + + + + + + + + + + + + + . ",
". + + + + + @ # $ % & * = - + + + + + . ",
". + + + + ; > , ' & ) ! ~ { ] + + + + . ",
". + + + ^ / ( _ : < [ } | 1 2 3 + + + . ",
". + + 4 5 6 7 8 9 0 a b c d e f g + + . ",
". + - , h i j k l { b m n o p q r s + . ",
". + t u : j ! l v w x y z A B C D E + . ",
". + F G H 0 I J c K e L M N O P Q R + . ",
". + j S T U b c V o W X N Y Z `  ...+ . ",
". + +.@.| #.$.%.&.*.B =.-.;.>.,.'.).+ . ",
". + !.~.{.K ].f ^./.(.D _.:.,.<.[.}.+ . ",
". + |.1.2.3.L 4.5.(.P 6.7.8.9.0.a.b.+ . ",
". + . %.c.A 4.d.e.;.f.,.g.h.i.j.k.l.+ . ",
". + + m.*.n.C D _.o.,.p.0.q.r.s.t.+ + . ",
". + + + u.v.Z w.x.8.<.y.z.A.B.C.+ + + . ",
". + + + + D.`  .'.h.i.E.F.G.H.+ + + + . ",
". + + + + + I.J.K.L.M.N.O.P.+ + + + + . ",
". + + + + + + + + + + + + + + + + + + . ",
". . . . . . . . . . . . . . . . . . . . "};
