/* XPM */
static char * color_scheme_fruity_xpm[] = {
"20 20 9 1",
" 	c None",
".	c #D3580E",
"+	c #EAD981",
"@	c #17794A",
"#	c #0C321C",
"$	c #1BAF3D",
"%	c #6C2E1C",
"&	c #FD721E",
"*	c #FFA135",
"....................",
".++++++++++++++++++.",
".+++++++++++++@++++.",
".+++++++++++@+#+#++.",
".+++++++++@+#$#@+++.",
".+++++++++#$#@###@+.",
".+++++++++#$##@$+++.",
".++++++%%%#@####@++.",
".++++%%&%&%#@$$++++.",
".+++%&.*&*.%###@+++.",
".++%.%*.*.*&%++++++.",
".++%&.*&.*&%%++++++.",
".+%.%*.*&.*&%++++++.",
".+%&.*&.**.%+++++++.",
".++%&.**.%&%+++++++.",
".++%%&.%&.%++++++++.",
".+++%%&.%%+++++++++.",
".+++++%%+++++++++++.",
".++++++++++++++++++.",
"...................."};
