/* XPM */
static char * color_scheme_solarized_dark_xpm[] = {
"20 20 4 1",
" 	c None",
".	c #586E75",
"+	c #063440",
"@	c #93A1A1",
"....................",
"....................",
"..++++++++@@@@@@@@..",
"..++++++++@@@@@@@@..",
"..++++++++@@@@@@@@..",
"..++++++++@@@@@@@@..",
"..++++++++@@@@@@@@..",
"..++++++++@@@@@@@@..",
"..++++++++@@@@@@@@..",
"..++++++++@@@@@@@@..",
"..++++++++@@@@@@@@..",
"..++++++++@@@@@@@@..",
"..++++++++@@@@@@@@..",
"..++++++++@@@@@@@@..",
"..++++++++@@@@@@@@..",
"..++++++++@@@@@@@@..",
"..++++++++@@@@@@@@..",
"..++++++++@@@@@@@@..",
"....................",
"...................."};
