/* XPM */
static char * color_scheme_linux_mint_xpm[] = {
"20 20 4 1",
" 	c None",
".	c #3C3C3C",
"+	c #484848",
"@	c #97BF60",
"....................",
"....................",
"..++++++++@@@@@@@@..",
"..++++++++@@@@@@@@..",
"..++++++++@@@@@@@@..",
"..++++++++@@@@@@@@..",
"..++++++++@@@@@@@@..",
"..++++++++@@@@@@@@..",
"..++++++++@@@@@@@@..",
"..++++++++@@@@@@@@..",
"..++++++++@@@@@@@@..",
"..++++++++@@@@@@@@..",
"..++++++++@@@@@@@@..",
"..++++++++@@@@@@@@..",
"..++++++++@@@@@@@@..",
"..++++++++@@@@@@@@..",
"..++++++++@@@@@@@@..",
"..++++++++@@@@@@@@..",
"....................",
"...................."};
