/* XPM */
static char * color_scheme_windows_metro_xpm[] = {
"20 20 117 2",
"  	c None",
". 	c #00ADEF",
"+ 	c #FFFFFF",
"@ 	c #FFFFFE",
"# 	c #F5FBFC",
"$ 	c #DBF2FA",
"% 	c #F8FDFE",
"& 	c #FBFDFE",
"* 	c #EBF8FC",
"= 	c #C5EAF9",
"- 	c #A6E1F7",
"; 	c #85D5F4",
"> 	c #64CBF2",
", 	c #45C0F1",
"' 	c #29B7F0",
") 	c #36BCF0",
"! 	c #F1FAFC",
"~ 	c #FDFFFE",
"{ 	c #C6EAF9",
"] 	c #9BDDF5",
"^ 	c #77D0F3",
"/ 	c #53C5F2",
"( 	c #2FB7EF",
"_ 	c #66CAF0",
": 	c #71CEF1",
"< 	c #00A2EC",
"[ 	c #00A6EE",
"} 	c #00A7EE",
"| 	c #00A9EF",
"1 	c #22B6F0",
"2 	c #F2FAFC",
"3 	c #F4FBFD",
"4 	c #1DB3EE",
"5 	c #00A4ED",
"6 	c #00A8EE",
"7 	c #00A6EF",
"8 	c #4FC5F1",
"9 	c #73D0F2",
"0 	c #00ABEF",
"a 	c #25B7F0",
"b 	c #F5FBFD",
"c 	c #27B8F0",
"d 	c #54C6F1",
"e 	c #74D0F2",
"f 	c #28B8F0",
"g 	c #1AB3EF",
"h 	c #00A5EE",
"i 	c #00A3EE",
"j 	c #48C2F0",
"k 	c #6ACCF1",
"l 	c #00A0ED",
"m 	c #15B1EF",
"n 	c #F1FAFB",
"o 	c #F8FDFD",
"p 	c #8CD7F4",
"q 	c #78D0F3",
"r 	c #7DD2F3",
"s 	c #80D2F2",
"t 	c #7FD0F2",
"u 	c #ACE1F5",
"v 	c #BCE7F6",
"w 	c #85D2F3",
"x 	c #8BD6F4",
"y 	c #8DD6F3",
"z 	c #8ED7F3",
"A 	c #90D9F4",
"B 	c #92D9F5",
"C 	c #A3DFF5",
"D 	c #FAFDFD",
"E 	c #F7FCFD",
"F 	c #56C5F2",
"G 	c #38BCF1",
"H 	c #3BBEF1",
"I 	c #3CBEF0",
"J 	c #3CBBF0",
"K 	c #7DD2F2",
"L 	c #95DAF5",
"M 	c #3FBBF0",
"N 	c #43C0F1",
"O 	c #44C0F1",
"P 	c #46C1F1",
"Q 	c #47C0F1",
"R 	c #62C9F1",
"S 	c #F5FCFC",
"T 	c #21B6F0",
"U 	c #00A8EF",
"V 	c #00AAEF",
"W 	c #4DC4F1",
"X 	c #6ECEF2",
"Y 	c #00A4EE",
"Z 	c #00A7EF",
"` 	c #1BB4EF",
" .	c #44BFF0",
"..	c #0AACEE",
"+.	c #00A9ED",
"@.	c #00A6ED",
"#.	c #00A2EE",
"$.	c #47C1F0",
"%.	c #6DCEF2",
"&.	c #00ACEF",
"*.	c #FCFEFE",
"=.	c #E9F7FC",
"-.	c #CEEDF9",
";.	c #ADE2F7",
">.	c #9CDCF4",
",.	c #92DAF4",
"'.	c #27B2EE",
").	c #0DAFEE",
"!.	c #00AAED",
"~.	c #00A7ED",
"{.	c #18B3EF",
"].	c #EFF9FC",
"^.	c #D5F0FA",
"/.	c #B8E7F8",
"(.	c #97DCF6",
"_.	c #74CFF3",
":.	c #6CCDF2",
". . . . . . . . . . . . . . . . . . . . ",
". . . . . . . . . . . . . . . . . . . . ",
". . + + + + + + + + + + + + @ # $ % . . ",
". . + + + + + @ & * = - ; > , ' ) ! . . ",
". . ~ { ] ^ / ( _ : < [ [ } | | 1 2 . . ",
". . 3 4 5 [ 6 7 8 9 } . . . . 0 a 2 . . ",
". . b c 0 . . | d e } . . . . 0 a 2 . . ",
". . b f 0 . . | d e } . . . . 0 a 2 . . ",
". . 3 g h } } i j k l } } } } h m n . . ",
". . o p q r s t u v w x y z A B C D . . ",
". . E F G H I J K L M N O , P Q R S . . ",
". . b T U V V 7 W X Y V V V V Z ` ! . . ",
". . b f 0 . . | d e } . . . . 0 a 2 . . ",
". . b T V . . | d e } . . . . 0 a 2 . . ",
". . E  ...+.@.#.$.%.Y &.. . . 0 a 2 . . ",
". . + *.=.-.;.; >.,.'.).!.~.[ Y {.n . . ",
". . + + + + + + + + @ ].^./.(._.:.n . . ",
". . + + + + + + + + + + + + + + + + . . ",
". . . . . . . . . . . . . . . . . . . . ",
". . . . . . . . . . . . . . . . . . . . "};
