/* XPM */
static char * color_scheme_uranus_xpm[] = {
"20 20 193 2",
"  	c None",
". 	c #0B3A42",
"+ 	c #000000",
"@ 	c #061A1D",
"# 	c #104651",
"$ 	c #166370",
"% 	c #197081",
"& 	c #186E7F",
"* 	c #155F6B",
"= 	c #0E414A",
"- 	c #04171A",
"; 	c #104751",
"> 	c #1C7788",
", 	c #1B7586",
"' 	c #1A7384",
") 	c #1A7282",
"! 	c #187080",
"~ 	c #166D7C",
"{ 	c #166B7A",
"] 	c #0C3E47",
"^ 	c #010203",
"/ 	c #145663",
"( 	c #1B7687",
"_ 	c #1A7383",
": 	c #197181",
"< 	c #197080",
"[ 	c #176E7E",
"} 	c #176C7B",
"| 	c #166A7A",
"1 	c #156977",
"2 	c #146876",
"3 	c #0D4952",
"4 	c #030506",
"5 	c #050A0B",
"6 	c #1F373C",
"7 	c #114751",
"8 	c #1C7688",
"9 	c #1B7485",
"0 	c #197284",
"a 	c #18707F",
"b 	c #186D7E",
"c 	c #156A79",
"d 	c #146775",
"e 	c #156775",
"f 	c #176976",
"g 	c #32707B",
"h 	c #37616A",
"i 	c #366069",
"j 	c #06191D",
"k 	c #1C7687",
"l 	c #1A7484",
"m 	c #1A7283",
"n 	c #187081",
"o 	c #186F7E",
"p 	c #186E7D",
"q 	c #166C7B",
"r 	c #166A78",
"s 	c #156876",
"t 	c #166776",
"u 	c #186A77",
"v 	c #358696",
"w 	c #3C8D9C",
"x 	c #368694",
"y 	c #0C2327",
"z 	c #20383E",
"A 	c #0F454F",
"B 	c #197282",
"C 	c #176F7F",
"D 	c #176D7C",
"E 	c #166B7B",
"F 	c #156A78",
"G 	c #166978",
"H 	c #1F7180",
"I 	c #378998",
"J 	c #3D8E9D",
"K 	c #2F7F8E",
"L 	c #146371",
"M 	c #14626E",
"N 	c #1D535C",
"O 	c #28484E",
"P 	c #15616F",
"Q 	c #196F80",
"R 	c #176C7C",
"S 	c #166A79",
"T 	c #186B79",
"U 	c #2B7E8D",
"V 	c #368796",
"W 	c #3F8F9E",
"X 	c #1F707C",
"Y 	c #12616E",
"Z 	c #105D69",
"` 	c #0E5C67",
" .	c #10525C",
"..	c #080E0F",
"+.	c #186D7D",
"@.	c #176D7D",
"#.	c #176B7A",
"$.	c #1A6E7C",
"%.	c #2C7E8D",
"&.	c #3F91A0",
"*.	c #3E8F9E",
"=.	c #166775",
"-.	c #146370",
";.	c #105F6B",
">.	c #0F5D69",
",.	c #0E5B67",
"'.	c #0E5A65",
").	c #0C555F",
"!.	c #176B7B",
"~.	c #176E7D",
"{.	c #1B6F7E",
"].	c #2D7F8F",
"^.	c #4395A4",
"/.	c #2C7E8C",
"(.	c #176774",
"_.	c #156572",
":.	c #11616D",
"<.	c #0D5964",
"[.	c #0D5862",
"}.	c #0B535D",
"|.	c #135B68",
"1.	c #186C7C",
"2.	c #1C6F7F",
"3.	c #4395A5",
"4.	c #2D7F8D",
"5.	c #2B7D8B",
"6.	c #146572",
"7.	c #12626F",
"8.	c #105F6C",
"9.	c #0F5E6A",
"0.	c #0F5C68",
"a.	c #0E5B66",
"b.	c #0C5762",
"c.	c #0B5660",
"d.	c #09464F",
"e.	c #11464F",
"f.	c #2D808F",
"g.	c #3E90A0",
"h.	c #2C7F8D",
"i.	c #156774",
"j.	c #136371",
"k.	c #11616E",
"l.	c #10606C",
"m.	c #105E6A",
"n.	c #0A545D",
"o.	c #053135",
"p.	c #0A1213",
"q.	c #366772",
"r.	c #388A9A",
"s.	c #146573",
"t.	c #0E5A66",
"u.	c #0C5761",
"v.	c #0A525B",
"w.	c #011113",
"x.	c #3D6D77",
"y.	c #26434A",
"z.	c #12454D",
"A.	c #136471",
"B.	c #0F5E69",
"C.	c #0F5C66",
"D.	c #0E5A64",
"E.	c #0C5962",
"F.	c #0C5661",
"G.	c #0B555E",
"H.	c #0A535C",
"I.	c #0A515A",
"J.	c #042F34",
"K.	c #213B40",
"L.	c #080F10",
"M.	c #233E44",
"N.	c #1F5F69",
"O.	c #0D5762",
"P.	c #0B545E",
"Q.	c #09525B",
"R.	c #05393F",
"S.	c #27454B",
"T.	c #2C4E55",
"U.	c #325861",
"V.	c #0F5D68",
"W.	c #0C5862",
"X.	c #0A545E",
"Y.	c #095159",
"Z.	c #233E43",
"`.	c #0E1A1C",
" +	c #0D181A",
".+	c #031315",
"++	c #07343A",
"@+	c #0A4952",
"#+	c #0A525C",
"$+	c #07454C",
"%+	c #011112",
"&+	c #020303",
"*+	c #000101",
". . . . . . . . . . . . . . . . . . . . ",
". + + + + + + + + + + + + + + + + + + . ",
". + + + + + @ # $ % & * = - + + + + + . ",
". + + + + ; > , ' ) ! & ~ { ] + + + ^ . ",
". + + + / ( , _ : < [ } | 1 2 3 4 5 6 . ",
". + + 7 8 9 0 : a b } c 1 d e f g h i . ",
". + j k l m n o p q r s t u v w x y z . ",
". + A l B ! C D E F G H I J K L M N O . ",
". + P B Q [ R { S T U V W X Y Z `  .... ",
". + +.< @.D #.$.%.&.*.=.-.;.>.,.'.).+ . ",
". + !.~.} {.].^./.(._.:.;.>.,.<.[.}.+ . ",
". + |.1.2.3.4.5.6.7.8.9.0.a.<.b.c.d.+ . ",
". + e.f.g.h.i.j.k.l.m.0.a.<.b.).n.o.+ . ",
". p.q.r.T s.7.k.;.9.` t.<.u.c.n.v.w.+ . ",
". x.y.z.A.7.:.;.B.C.D.E.F.G.H.I.J.+ + . ",
". K.L.M.N.l.m.>.` '.O.c.P.H.Q.R.+ + + . ",
". S.T.U.T.. V.t.<.W.c.X.H.Y.J.+ + + + . ",
". Z.`. +4 + .+++@+#+I.$+J.%++ + + + + . ",
". &+*+*++ + + + + + + + + + + + + + + . ",
". . . . . . . . . . . . . . . . . . . . "};
