/* XPM */
static char * color_scheme_mars_xpm[] = {
"20 20 122 2",
"  	c None",
". 	c #362C21",
"+ 	c #000000",
"@ 	c #483622",
"# 	c #7F613C",
"$ 	c #866540",
"% 	c #856541",
"& 	c #826442",
"* 	c #7F6240",
"= 	c #755A3C",
"- 	c #403221",
"; 	c #82623D",
"> 	c #8A6842",
", 	c #876742",
"' 	c #856641",
") 	c #826541",
"! 	c #806242",
"~ 	c #7D6242",
"{ 	c #7B6041",
"] 	c #795F41",
"^ 	c #70573C",
"/ 	c #87663F",
"( 	c #8A6941",
"_ 	c #826542",
": 	c #7F6341",
"< 	c #7E6142",
"[ 	c #7B6141",
"} 	c #775E41",
"| 	c #745C41",
"1 	c #70583F",
"2 	c #81623D",
"3 	c #896842",
"4 	c #876741",
"5 	c #856542",
"6 	c #836441",
"7 	c #806342",
"8 	c #7D6141",
"9 	c #765D41",
"0 	c #715B40",
"a 	c #6F5941",
"b 	c #67533C",
"c 	c #846642",
"d 	c #806341",
"e 	c #765E41",
"f 	c #725B41",
"g 	c #6F5A41",
"h 	c #6D5841",
"i 	c #6B5640",
"j 	c #372D21",
"k 	c #7F613D",
"l 	c #7D6142",
"m 	c #7C6041",
"n 	c #6A5641",
"o 	c #685641",
"p 	c #614F3B",
"q 	c #856640",
"r 	c #826441",
"s 	c #806241",
"t 	c #7E6141",
"u 	c #705A41",
"v 	c #6B5741",
"w 	c #685540",
"x 	c #665440",
"y 	c #63523F",
"z 	c #785E41",
"A 	c #715B41",
"B 	c #6F5940",
"C 	c #6B5641",
"D 	c #685640",
"E 	c #665441",
"F 	c #635240",
"G 	c #615140",
"H 	c #846541",
"I 	c #7E6241",
"J 	c #6A5740",
"K 	c #655440",
"L 	c #5F4F40",
"M 	c #826440",
"N 	c #836541",
"O 	c #8E6B41",
"P 	c #816341",
"Q 	c #7F6241",
"R 	c #755C41",
"S 	c #735B40",
"T 	c #715A40",
"U 	c #5D4E3F",
"V 	c #745A3C",
"W 	c #785E40",
"X 	c #695640",
"Y 	c #55483B",
"Z 	c #3F3121",
"` 	c #785F41",
" .	c #705941",
"..	c #6E5740",
"+.	c #6C5740",
"@.	c #675540",
"#.	c #655441",
"$.	c #635241",
"%.	c #605041",
"&.	c #5A4D40",
"*.	c #2F2821",
"=.	c #6F563C",
"-.	c #715A41",
";.	c #685541",
">.	c #635341",
",.	c #615240",
"'.	c #5F5041",
").	c #5C4F40",
"!.	c #54473B",
"~.	c #6E583E",
"{.	c #645240",
"].	c #5E5040",
"^.	c #5D4E40",
"/.	c #564B3E",
"(.	c #66523C",
"_.	c #655340",
":.	c #635340",
"<.	c #604F3B",
"[.	c #62523F",
"}.	c #5F5040",
"|.	c #5B4E3F",
"1.	c #2F2721",
". . . . . . . . . . . . . . . . . . . . ",
". . . . . . . . . . . . . . . . . . . . ",
". . + + + + @ # $ % & * = - + + + + . . ",
". . + + + ; > , ' ) ! ~ { ] ^ + + + . . ",
". . + + / ( , ' _ : < [ ] } | 1 + + . . ",
". . + 2 3 4 5 6 7 8 [ ] 9 | 0 a b + . . ",
". . @ 3 , c & d 8 { ] e | f g h i j . . ",
". . k , c _ d l m ] e | f a h n o p . . ",
". . q c r s t { ] 9 | 0 u h v w x y . . ",
". . ' r d l { z e | A B h C D E F G . . ",
". . ' H I { ] 9 | f a h J w x K F L . . ",
". . M N O % 6 r P Q R S T B ] 6 P U . . ",
". . V { { ) r d Q I ' H H r W r X Y . . ",
". . Z ` e | f  ...+.X @.#.$.%.L &.*.. . ",
". . + =.| -.B h C ;.K >.,.'.).&.!.+ . . ",
". . + + ~.a h n ;.K {.G ].^.&./.+ + . . ",
". . + + + (.n o _.:.G '.^.&.!.+ + + . . ",
". . + + + + . <.[.G }.|.Y 1.+ + + + . . ",
". . . . . . . . . . . . . . . . . . . . ",
". . . . . . . . . . . . . . . . . . . . "};
