/* XPM */
static char * color_scheme_simpsons_xpm[] = {
"20 20 211 2",
"  	c #FCCA07",
". 	c #F2F1DC",
"+ 	c #F3F1DC",
"@ 	c #978F7C",
"# 	c #5F4F3F",
"$ 	c #544132",
"% 	c #776A59",
"& 	c #DAD5C1",
"* 	c #EFF1DB",
"= 	c #F2F0DB",
"- 	c #F0F2DC",
"; 	c #F1F3DB",
"> 	c #3B2A18",
", 	c #B65278",
"' 	c #E26CA8",
") 	c #AD4369",
"! 	c #5F4224",
"~ 	c #7A413A",
"{ 	c #66432D",
"] 	c #4B3623",
"^ 	c #A89C8C",
"/ 	c #EFF1DC",
"( 	c #F3F0DD",
"_ 	c #F2F1DD",
": 	c #D0CBB7",
"< 	c #503520",
"[ 	c #B9577D",
"} 	c #DC78AE",
"| 	c #997CBE",
"1 	c #E176AC",
"2 	c #DE75AE",
"3 	c #D4B5C7",
"4 	c #DE77AC",
"5 	c #E33992",
"6 	c #877A69",
"7 	c #F2F2DA",
"8 	c #F1F0DB",
"9 	c #663D39",
"0 	c #E170A8",
"a 	c #D2B75C",
"b 	c #DF7BAF",
"c 	c #B25D84",
"d 	c #DE4595",
"e 	c #E04297",
"f 	c #DB519E",
"g 	c #DF72A9",
"h 	c #E16EA7",
"i 	c #D9317E",
"j 	c #A83F68",
"k 	c #897C69",
"l 	c #F4F2DD",
"m 	c #824155",
"n 	c #E277AD",
"o 	c #C07BB2",
"p 	c #DE77AE",
"q 	c #DB4896",
"r 	c #356C42",
"s 	c #B754A6",
"t 	c #DD3D93",
"u 	c #DF3B91",
"v 	c #DD4C99",
"w 	c #DE3A91",
"x 	c #84606C",
"y 	c #DE3787",
"z 	c #5B4128",
"A 	c #EBE8D5",
"B 	c #F0EED9",
"C 	c #BC6286",
"D 	c #E13D94",
"E 	c #D58FB4",
"F 	c #DC3A90",
"G 	c #D42D85",
"H 	c #C01476",
"I 	c #BC2984",
"J 	c #BA1C57",
"K 	c #D03885",
"L 	c #E04296",
"M 	c #DF3B92",
"N 	c #93506F",
"O 	c #DE3C8F",
"P 	c #973357",
"Q 	c #392618",
"R 	c #8A7F6D",
"S 	c #A25E6D",
"T 	c #B9091D",
"U 	c #E13B8F",
"V 	c #C01679",
"W 	c #4D3720",
"X 	c #BCB19F",
"Y 	c #E4E3CF",
"Z 	c #665545",
"` 	c #C83E79",
" .	c #DF3C8F",
"..	c #E13895",
"+.	c #DC418D",
"@.	c #D5358D",
"#.	c #523724",
"$.	c #493828",
"%.	c #D5649C",
"&.	c #D1A94A",
"*.	c #C14A9C",
"=.	c #6F3D36",
"-.	c #CAC1B0",
";.	c #EFF2DD",
">.	c #452E1C",
",.	c #866FBF",
"'.	c #DC3C96",
").	c #DF3D92",
"!.	c #CF2C85",
"~.	c #5A4025",
"{.	c #402D1E",
"].	c #DE408D",
"^.	c #DE3C91",
"/.	c #DB3C8E",
"(.	c #9A3557",
"_.	c #ECEED8",
":.	c #F0F2DD",
"<.	c #3D2A19",
"[.	c #E44C9F",
"}.	c #DE3A90",
"|.	c #BB0A1E",
"1.	c #AB49A0",
"2.	c #614327",
"3.	c #605342",
"4.	c #A13D5F",
"5.	c #9762B0",
"6.	c #DC3D91",
"7.	c #8E4D53",
"8.	c #7B6B5C",
"9.	c #E9EBD3",
"0.	c #995466",
"a.	c #DF378E",
"b.	c #DE3C92",
"c.	c #D39258",
"d.	c #BF3F92",
"e.	c #803144",
"f.	c #BBB6A2",
"g.	c #62442C",
"h.	c #B3459B",
"i.	c #E13A94",
"j.	c #DF3D90",
"k.	c #DB357F",
"l.	c #524B21",
"m.	c #482E1F",
"n.	c #3E2918",
"o.	c #8B5459",
"p.	c #F99DCC",
"q.	c #D28EB3",
"r.	c #DB5B7C",
"s.	c #BD1E78",
"t.	c #6B2D3A",
"u.	c #513824",
"v.	c #C71F7E",
"w.	c #CFB642",
"x.	c #E13A92",
"y.	c #D32A6B",
"z.	c #E64D9F",
"A.	c #168133",
"B.	c #F48BC4",
"C.	c #F490C6",
"D.	c #E03C92",
"E.	c #C42381",
"F.	c #733C35",
"G.	c #918A78",
"H.	c #938876",
"I.	c #CF2C87",
"J.	c #C7247D",
"K.	c #DA68A4",
"L.	c #DC3A8F",
"M.	c #D86E6E",
"N.	c #DF3892",
"O.	c #C21F7A",
"P.	c #BB2370",
"Q.	c #4A311D",
"R.	c #F5F0DC",
"S.	c #6C3E31",
"T.	c #BB1875",
"U.	c #A45FB0",
"V.	c #E13B91",
"W.	c #DF3890",
"X.	c #E23B93",
"Y.	c #E03C95",
"Z.	c #BE1975",
"`.	c #B91A76",
" +	c #5B3C2A",
".+	c #DAD7C4",
"++	c #F1F0DE",
"@+	c #8B7C69",
"#+	c #A62B64",
"$+	c #B51E7B",
"%+	c #C72683",
"&+	c #D53188",
"*+	c #D78CB5",
"=+	c #566755",
"-+	c #BF1575",
";+	c #BD1A73",
">+	c #B0296E",
",+	c #D7D2BF",
"'+	c #F1F0DC",
")+	c #F1F2E0",
"!+	c #F0F2DA",
"~+	c #DDDCC8",
"{+	c #502828",
"]+	c #5A392A",
"^+	c #693F2F",
"/+	c #BB2775",
"(+	c #BB2275",
"_+	c #503228",
":+	c #918473",
"<+	c #F0F1DF",
"[+	c #F2F0D9",
"                                        ",
"                                        ",
"    . . . . . + @ # $ % & . * . . .     ",
"    . = - ; > , ' ) ! ~ { ] ^ / ( _     ",
"    . * : < [ } | 1 2 3 4 5 { 6 - 7     ",
"    . 8 9 0 a b c d e f g h i j k l     ",
"    . m n o p q r s t u v w x y z A     ",
"    B C D E F G H I J K L M N O P Q     ",
"    R S T u U V W X Y Z `  ...+.@.#.    ",
"    $.%.&.M *.=.-.+ ;.( >.,.'.).!.~.    ",
"    {.].O ^./.(._._ :.7 <.[.}.|.1.2.    ",
"    3.4.5.6.^.7.8.( ( 9.0.a.b.c.d.e.    ",
"    f.g.h.i.j.k.l.m.n.o.p.q.}.r.s.t.    ",
"    . u.v.w.x.y.z.A.B.C.D.M j.E.F.G.    ",
"    - H.I.J.^.b.K.L.M.N.).6.O.P.Q._     ",
"    . R.n.S.T.U.^.V.W.X.Y.Z.`. +.+_     ",
"    . . ++@+#+$+%+&+*+=+-+;+>+,+_ '+    ",
"    . )+7 !+~+{+]+^+/+(+_+:+7 <+[+.     ",
"                                        ",
"                                        "};
