/* XPM */
static char * color_scheme_moon_xpm[] = {
"20 20 18 1",
" 	c None",
".	c #494949",
"+	c #000000",
"@	c #090909",
"#	c #959595",
"$	c #C8C8C8",
"%	c #D4D4D4",
"&	c #D3D3D3",
"*	c #6C6C6C",
"=	c #D2D2D2",
"-	c #C7C7C7",
";	c #B8B8B8",
">	c #D1D1D1",
",	c #AAAAAA",
"'	c #D0D0D0",
")	c #A1A1A1",
"!	c #CDCDCD",
"~	c #BDBDBD",
"....................",
"....................",
"..++++@.#$$#.@++++..",
"..+++.%%%%%&%%.+++..",
"..++*%==%%&-&%%*++..",
"..+.%=;;=%>,>%%%.+..",
"..@%%%==%%%>%%'%%@..",
"...%%'%%%&&%%')'%...",
"..#%')'%&!!&%%'%%#..",
"..$%%'%%=~~=%=%%%$..",
"..$%%%%%%==%=;=%%$..",
"..#%%%>&%%%%=;=%%#..",
"...%%>,-&%&&%=%%%...",
"..@%%%>&%&!!&%%%%@..",
"..+.%%%%%=~~=%%%.+..",
"..++*%%%%%==%%%*++..",
"..+++.%%%%%%%%.+++..",
"..++++@.#$$#.@++++..",
"....................",
"...................."};
