/* XPM */
static char * color_scheme_dragon_ball_z_xpm[] = {
"20 20 203 2",
"  	c None",
". 	c #A32208",
"+ 	c #000000",
"@ 	c #030000",
"# 	c #1F0F00",
"$ 	c #281800",
"% 	c #110300",
"& 	c #2A1B02",
"* 	c #8C763A",
"= 	c #CFB777",
"- 	c #E8CD94",
"; 	c #ECD099",
"> 	c #DFC68A",
", 	c #B39D5C",
"' 	c #5C481A",
") 	c #060000",
"! 	c #604914",
"~ 	c #E6CA7F",
"{ 	c #FFE9BC",
"] 	c #FFDCC0",
"^ 	c #FFD2BF",
"/ 	c #FFD0BE",
"( 	c #FFD6BF",
"_ 	c #FFE3C1",
": 	c #FFE6AA",
"< 	c #AE9448",
"[ 	c #1E1200",
"} 	c #604905",
"| 	c #FAD571",
"1 	c #FFCFA7",
"2 	c #FEBB98",
"3 	c #FEBA96",
"4 	c #FFBA96",
"5 	c #FFC29E",
"6 	c #FFE09F",
"7 	c #C0A032",
"8 	c #150C00",
"9 	c #291C00",
"0 	c #E8B322",
"a 	c #FFBD7F",
"b 	c #FEAA79",
"c 	c #FEAD78",
"d 	c #FEB078",
"e 	c #FCAF78",
"f 	c #F7AA78",
"g 	c #FDB078",
"h 	c #FEAF78",
"i 	c #FEAC78",
"j 	c #FEAE80",
"k 	c #FFCE62",
"l 	c #8D6C0A",
"m 	c #8D6C04",
"n 	c #FFA51F",
"o 	c #FE9255",
"p 	c #FE9F5E",
"q 	c #FEA45C",
"r 	c #FFAC5C",
"s 	c #F7A85C",
"t 	c #EC995C",
"u 	c #FCAA5C",
"v 	c #FFA75C",
"w 	c #FEA15C",
"x 	c #FE9B5D",
"y 	c #FF9544",
"z 	c #ECB031",
"A 	c #281D03",
"B 	c #040100",
"C 	c #D09C11",
"D 	c #FF841B",
"E 	c #FE7623",
"F 	c #FF8A36",
"G 	c #FF983C",
"H 	c #FEA43C",
"I 	c #FDAD3C",
"J 	c #FCAE3C",
"K 	c #FEA83C",
"L 	c #FF9D3C",
"M 	c #FF913A",
"N 	c #FE802A",
"O 	c #FF7829",
"P 	c #FFC35A",
"Q 	c #635115",
"R 	c #1E1600",
"S 	c #E8A61B",
"T 	c #FF7D24",
"U 	c #FE771F",
"V 	c #F9761F",
"W 	c #F27B20",
"X 	c #FD9722",
"Y 	c #FEA922",
"Z 	c #FFAC22",
"` 	c #FFA022",
" .	c #F88721",
"..	c #F3731E",
"+.	c #FE751B",
"@.	c #FE8D4A",
"#.	c #FFC472",
"$.	c #866E28",
"%.	c #281E00",
"&.	c #ECA721",
"*.	c #FF7F2A",
"=.	c #FF7E28",
"-.	c #F27328",
";.	c #E16B28",
">.	c #FC9928",
",.	c #FFAA28",
"'.	c #FEAD28",
").	c #FFA327",
"!.	c #EF7F25",
"~.	c #E26324",
"{.	c #FE8F45",
"].	c #FFA46F",
"^.	c #FFC77E",
"/.	c #8D7530",
"(.	c #110B00",
"_.	c #E0A723",
":.	c #FF8932",
"<.	c #FE7F2F",
"[.	c #FD832F",
"}.	c #FB8B2E",
"|.	c #FE9E2E",
"1.	c #FEAD2D",
"2.	c #FFB02D",
"3.	c #FEA32C",
"4.	c #FC9634",
"5.	c #FB9A52",
"6.	c #FEAB73",
"7.	c #FFAC7C",
"8.	c #FFD48B",
"9.	c #786329",
"0.	c #B58E1C",
"a.	c #FFA13A",
"b.	c #FE8136",
"c.	c #FE8A37",
"d.	c #FF9538",
"e.	c #FEA338",
"f.	c #FBAD3B",
"g.	c #F7AA42",
"h.	c #FDB351",
"i.	c #FFB368",
"j.	c #FFB479",
"k.	c #FEB280",
"l.	c #FFB88B",
"m.	c #FED587",
"n.	c #473811",
"o.	c #5B4809",
"p.	c #FFBE3C",
"q.	c #FF8D43",
"r.	c #FE9147",
"s.	c #FEA04D",
"t.	c #FFB154",
"u.	c #FAB75F",
"v.	c #F2B06A",
"w.	c #FDC073",
"x.	c #FEBD7B",
"y.	c #FEB882",
"z.	c #FEB78B",
"A.	c #FFD49F",
"B.	c #C8A95B",
"C.	c #0D0600",
"D.	c #080300",
"E.	c #AF8B22",
"F.	c #FFBF53",
"G.	c #FF9955",
"H.	c #FEA55B",
"I.	c #FEB764",
"J.	c #FEC56C",
"K.	c #FECA75",
"L.	c #FEC77E",
"M.	c #FEC186",
"N.	c #FEBC8E",
"O.	c #FFCEA0",
"P.	c #F7D78A",
"Q.	c #4B3813",
"R.	c #1E1400",
"S.	c #C09B31",
"T.	c #FFCC64",
"U.	c #FFB96E",
"V.	c #FFBD72",
"W.	c #FEC879",
"X.	c #FECF81",
"Y.	c #FECC8A",
"Z.	c #FFCB96",
"`.	c #FFDCA5",
" +	c #F7D98D",
".+	c #6B5323",
"++	c #130A00",
"@+	c #8E7225",
"#+	c #E9C25C",
"$+	c #FFDF7E",
"%+	c #FFE88C",
"&+	c #FFEB95",
"*+	c #FFEB9C",
"=+	c #FDDE90",
"-+	c #C4AA60",
";+	c #4C3812",
">+	c #271B02",
",+	c #63501C",
"'+	c #867031",
")+	c #8D7838",
"!+	c #78642E",
"~+	c #473814",
"{+	c #0C0200",
". . . . . . . . . . . . . . . . . . . . ",
". . . . . . . . . . . . . . . . . . . . ",
". . + + + + + + @ # $ % + + + + + + . . ",
". . + + + + & * = - ; > , ' ) + + + . . ",
". . + + + ! ~ { ] ^ / ( _ : < [ + + . . ",
". . + + } | 1 2 3 3 4 3 3 5 6 7 8 + . . ",
". . + 9 0 a b c d e f g h i j k l + . . ",
". . + m n o p q r s t u v w x y z A . . ",
". . B C D E F G H I J K L M N O P Q . . ",
". . R S T U V W X Y Z `  ...+.@.#.$.. . ",
". . %.&.*.=.-.;.>.,.'.).!.~.{.].^./.. . ",
". . (._.:.<.[.}.|.1.2.3.4.5.6.7.8.9.. . ",
". . + 0.a.b.c.d.e.f.g.h.i.j.k.l.m.n.. . ",
". . + o.p.q.r.s.t.u.v.w.x.y.z.A.B.C.. . ",
". . + D.E.F.G.H.I.J.K.L.M.N.O.P.Q.+ . . ",
". . + + R.S.T.U.V.W.X.Y.Z.`. +.++ + . . ",
". . + + + ++@+#+$+%+&+*+=+-+;++ + + . . ",
". . + + + + + >+,+'+)+!+~+{++ + + + . . ",
". . . . . . . . . . . . . . . . . . . . ",
". . . . . . . . . . . . . . . . . . . . "};
