/* XPM */
static char * color_scheme_earth_xpm[] = {
"20 20 200 2",
"  	c None",
". 	c #2A5A6C",
"+ 	c #000000",
"@ 	c #15252B",
"# 	c #3F6A7A",
"$ 	c #89B1C0",
"% 	c #D8E3E8",
"& 	c #C0D6DF",
"* 	c #84ADBD",
"= 	c #346173",
"- 	c #102127",
"; 	c #396475",
"> 	c #C4D9E2",
", 	c #DCE5EA",
"' 	c #C1D7E1",
") 	c #DAE4E9",
"! 	c #E0E7EB",
"~ 	c #C5D9E2",
"{ 	c #8ABACD",
"] 	c #2A596C",
"^ 	c #3E758A",
"/ 	c #54A2C0",
"( 	c #5BA4C1",
"_ 	c #80B7CC",
": 	c #A6C9D6",
"< 	c #6EAAC1",
"[ 	c #59A1BC",
"} 	c #5EA4BE",
"| 	c #98C1D1",
"1 	c #86B7CA",
"2 	c #4393B2",
"3 	c #2B667D",
"4 	c #326072",
"5 	c #54A1BF",
"6 	c #529FBE",
"7 	c #4E9CB8",
"8 	c #4E9BB4",
"9 	c #58909B",
"0 	c #59807B",
"a 	c #4D8B9A",
"b 	c #4796B4",
"c 	c #4293B1",
"d 	c #3C8FAE",
"e 	c #3A8DAD",
"f 	c #205265",
"g 	c #122329",
"h 	c #4E9DB5",
"i 	c #41957D",
"j 	c #419077",
"k 	c #646D4E",
"l 	c #715A20",
"m 	c #725A1E",
"n 	c #527E7C",
"o 	c #418AA1",
"p 	c #3C8EAF",
"q 	c #398DAD",
"r 	c #378BAB",
"s 	c #3489AA",
"t 	c #0A1D24",
"u 	c #315F71",
"v 	c #519FBE",
"w 	c #40947A",
"x 	c #388F51",
"y 	c #368D46",
"z 	c #4590A4",
"A 	c #528184",
"B 	c #66663F",
"C 	c #6F5C26",
"D 	c #6C5F2D",
"E 	c #44828F",
"F 	c #368AA9",
"G 	c #3187A8",
"H 	c #1B4E62",
"I 	c #44869F",
"J 	c #4F9DBB",
"K 	c #4B9AB0",
"L 	c #378E4B",
"M 	c #378E4E",
"N 	c #368D44",
"O 	c #4192AA",
"P 	c #4091B0",
"Q 	c #42899D",
"R 	c #4C7C7D",
"S 	c #705B22",
"T 	c #705A21",
"U 	c #487879",
"V 	c #3284A4",
"W 	c #2F85A6",
"X 	c #256E8B",
"Y 	c #4B97B6",
"Z 	c #4A9AB8",
"` 	c #449698",
" .	c #358D3F",
"..	c #368D49",
"+.	c #3C8EA9",
"@.	c #3E8BA7",
"#.	c #676339",
"$.	c #715A1E",
"%.	c #72591C",
"&.	c #6E5C26",
"*.	c #3F7982",
"=.	c #2C82A2",
"-.	c #277D9D",
";.	c #4996B3",
">.	c #4898B6",
",.	c #42949A",
"'.	c #378E52",
").	c #358D44",
"!.	c #328B4E",
"~.	c #257D9D",
"{.	c #3A849B",
"].	c #696132",
"^.	c #71591E",
"/.	c #705A20",
"(.	c #6D5C26",
"_.	c #3E7881",
":.	c #2980A0",
"<.	c #247B9B",
"[.	c #3C819A",
"}.	c #4797B6",
"|.	c #4294AA",
"1.	c #358D49",
"2.	c #358C5B",
"3.	c #227D77",
"4.	c #1B7291",
"5.	c #5D694B",
"6.	c #6C5D2A",
"7.	c #6F5B23",
"8.	c #666033",
"9.	c #2E7D98",
"0.	c #267FA0",
"a.	c #1D6986",
"b.	c #29586B",
"c.	c #4495B4",
"d.	c #4192AB",
"e.	c #368D52",
"f.	c #338B44",
"g.	c #257F80",
"h.	c #2B768A",
"i.	c #65623A",
"j.	c #72591D",
"k.	c #536953",
"l.	c #287D9B",
"m.	c #237D9E",
"n.	c #13485C",
"o.	c #0E1F26",
"p.	c #4193B2",
"q.	c #3E90AF",
"r.	c #398E91",
"s.	c #348B5B",
"t.	c #2C7A8D",
"u.	c #625D31",
"v.	c #685F2F",
"w.	c #6B5D29",
"x.	c #675F30",
"y.	c #496D63",
"z.	c #217B9C",
"A.	c #061A21",
"B.	c #245568",
"C.	c #3B8FAF",
"D.	c #388CA8",
"E.	c #378A74",
"F.	c #4E7652",
"G.	c #5D6747",
"H.	c #666135",
"I.	c #686338",
"J.	c #656034",
"K.	c #695E2C",
"L.	c #5C684B",
"M.	c #287995",
"N.	c #207A9D",
"O.	c #11475B",
"P.	c #28657C",
"Q.	c #388CAC",
"R.	c #559CB3",
"S.	c #5C9DB1",
"T.	c #4589A0",
"U.	c #617A6A",
"V.	c #92A299",
"W.	c #607969",
"X.	c #407983",
"Y.	c #72A6B8",
"Z.	c #247C9D",
"`.	c #15566E",
" +	c #225467",
".+	c #A5C7D4",
"++	c #D6E1E7",
"@+	c #D0DEE4",
"#+	c #D1DEE4",
"$+	c #CEDDE3",
"%+	c #7DAEC1",
"&+	c #71A8BD",
"*+	c #15495E",
"=+	c #0B1E25",
"-+	c #9BBAC6",
";+	c #D2DFE5",
">+	c #AAC8D4",
",+	c #A4BFCB",
"'+	c #497181",
")+	c #081C23",
". . . . . . . . . . . . . . . . . . . . ",
". + + + + + + + + + + + + + + + + + + . ",
". + + + + + @ # $ % & * = - + + + + + . ",
". + + + + ; > , % ' ) ! ~ { ] + + + + . ",
". + + + ^ / ( _ : < [ } | 1 2 3 + + + . ",
". + + 4 5 6 7 8 9 0 a 2 b c d e f + + . ",
". + g 5 6 h i j k l m n o p q r s t + . ",
". + u v 7 w x y z A B C D E F s G H + . ",
". + I J K L M N O P Q R S T U V W X + . ",
". + Y Z `  .y ..+.@.#.$.%.%.&.*.=.-.+ . ",
". + ;.>.,.'.).!.~.{.].^./.^.(._.:.<.+ . ",
". + [.}.|.1.2.3.4.5.6.7././.8.9.0.a.+ . ",
". + b.c.d.e.f.g.h.i.T T j./.k.l.m.n.+ . ",
". + o.p.q.r.s.t.u.(.T v.w.x.y.<.z.A.+ . ",
". + + B.C.D.E.F.G.H.I.J.K.L.M.N.O.+ + . ",
". + + + P.Q.R.S.T.U.V.W.X.Y.Z.`.+ + + . ",
". + + + +  +.+++@+@+#+$+%+&+*++ + + + . ",
". + + + + + =+. -+;+>+,+'+)++ + + + + . ",
". + + + + + + + + + + + + + + + + + + . ",
". . . . . . . . . . . . . . . . . . . . "};
