/* XPM */
static char * color_scheme_fruity_xpm[] = {
"20 20 182 2",
"  	c None",
". 	c #D9AE00",
"+ 	c #AD5362",
"@ 	c #AC5360",
"# 	c #B36555",
"$ 	c #C47F57",
"% 	c #CC8B5E",
"& 	c #C9875F",
"* 	c #B86D57",
"= 	c #AC545F",
"- 	c #AD565E",
"; 	c #D0925C",
"> 	c #F2DBA7",
", 	c #FCF8E7",
"' 	c #F9F3DA",
") 	c #F6EDC8",
"! 	c #F9F4DD",
"~ 	c #FDFAEA",
"{ 	c #F0D699",
"] 	c #C88253",
"^ 	c #B36158",
"/ 	c #EBCA86",
"( 	c #FBF8E8",
"_ 	c #F0E3AA",
": 	c #F0E1A6",
"< 	c #ECD98E",
"[ 	c #EBD78A",
"} 	c #F0E2A8",
"| 	c #F3E8B8",
"1 	c #FBF5DA",
"2 	c #D4995C",
"3 	c #AD575D",
"4 	c #EBC97F",
"5 	c #F9F4DB",
"6 	c #F2E5B1",
"7 	c #EBD686",
"8 	c #EDDA91",
"9 	c #E9D47F",
"0 	c #EBD789",
"a 	c #E8D27A",
"b 	c #EBD788",
"c 	c #F6EEC9",
"d 	c #FBF5DB",
"e 	c #C68057",
"f 	c #D29656",
"g 	c #F9F2D6",
"h 	c #EAD583",
"i 	c #EBD787",
"j 	c #EDDB92",
"k 	c #E8D279",
"l 	c #EBD888",
"m 	c #E8D276",
"n 	c #E9D47E",
"o 	c #EAD57F",
"p 	c #EEDE98",
"q 	c #E6CE6A",
"r 	c #F1E4A9",
"s 	c #F1D79A",
"t 	c #AC555E",
"u 	c #F4E1AD",
"v 	c #EFE0A1",
"w 	c #E8D176",
"x 	c #E7D173",
"y 	c #EAD681",
"z 	c #E9D57D",
"A 	c #E8D172",
"B 	c #EAD57D",
"C 	c #E5CB60",
"D 	c #E4CB5D",
"E 	c #E7D06C",
"F 	c #FBF6DB",
"G 	c #C57D4B",
"H 	c #BC7353",
"I 	c #FDFBED",
"J 	c #F2E6B1",
"K 	c #ECD98A",
"L 	c #EBD783",
"M 	c #E7CF6C",
"N 	c #E8D275",
"O 	c #EFE09D",
"P 	c #EFE09C",
"Q 	c #E6CE67",
"R 	c #E3C957",
"S 	c #E3C854",
"T 	c #E4CA57",
"U 	c #EAD67D",
"V 	c #FDFCEF",
"W 	c #D69941",
"X 	c #D0945F",
"Y 	c #FDFCF1",
"Z 	c #E6CD65",
"` 	c #E4CB5E",
" .	c #E4CA5D",
"..	c #ECD988",
"+.	c #EEDD94",
"@.	c #FAF5D9",
"#.	c #FBF7DF",
"$.	c #EAD57A",
"%.	c #E6CC5E",
"&.	c #E5CB5B",
"*.	c #E5CC5C",
"=.	c #FDFCEE",
"-.	c #DEA63E",
";.	c #D49C64",
">.	c #FEFDF0",
",.	c #EDDD92",
"'.	c #ECD987",
").	c #E9D476",
"!.	c #E3C852",
"~.	c #E7CF67",
"{.	c #F0E19D",
"].	c #EBD880",
"^.	c #E4CA58",
"/.	c #E6CE63",
"(.	c #E1C445",
"_.	c #E1C340",
":.	c #E5CB59",
"<.	c #FDF9E5",
"[.	c #DBA137",
"}.	c #CE8F5B",
"|.	c #FEFDEF",
"1.	c #EAD579",
"2.	c #E1C342",
"3.	c #E3C74C",
"4.	c #E5CC5D",
"5.	c #E8D16C",
"6.	c #E5CC5B",
"7.	c #E7D067",
"8.	c #E9D371",
"9.	c #F8E9B3",
"0.	c #D19040",
"a.	c #B46753",
"b.	c #FCF7DD",
"c.	c #F6EDBF",
"d.	c #E1C443",
"e.	c #EAD67A",
"f.	c #EFCC5D",
"g.	c #BB6D50",
"h.	c #AC5361",
"i.	c #E4BE7F",
"j.	c #F7EFC5",
"k.	c #EBD87F",
"l.	c #E6CD60",
"m.	c #E1C341",
"n.	c #EAD578",
"o.	c #FAF5D7",
"p.	c #F5E09B",
"q.	c #E0A933",
"r.	c #B26059",
"s.	c #F3E1B2",
"t.	c #FCFAE6",
"u.	c #EFE099",
"v.	c #E6CE62",
"w.	c #EBD982",
"x.	c #E8D26F",
"y.	c #F9F4D4",
"z.	c #FDFCED",
"A.	c #F5DE93",
"B.	c #EABA2B",
"C.	c #BA6B52",
"D.	c #B66758",
"E.	c #EED396",
"F.	c #FCF9E3",
"G.	c #FDFAE6",
"H.	c #F7E6AB",
"I.	c #EEC751",
"J.	c #E9B92A",
"K.	c #C67F49",
"L.	c #AD575C",
"M.	c #CF8844",
"N.	c #E7B151",
"O.	c #EEC065",
"P.	c #ECB851",
"Q.	c #E9AC30",
"R.	c #E9AB2B",
"S.	c #DD9B35",
"T.	c #B96A52",
"U.	c #AC5855",
"V.	c #B4604C",
"W.	c #B7634A",
"X.	c #B4604D",
"Y.	c #AC5757",
". . . . . . . . . . . . . . . . . . . . ",
". . . . . . . . . . . . . . . . . . . . ",
". . + + + + + @ # $ % & * = + + + + . . ",
". . + + + - ; > , ' ) ! ~ { ] + + + . . ",
". . + + ^ / ( _ : < [ < } | 1 2 + + . . ",
". . + 3 4 5 6 7 7 8 9 0 a b c d e + . . ",
". . + f g h i j k l m n o p q r s - . . ",
". . t u v w x n y z y A B C D E F G . . ",
". . H I J K L M N O P Q R S T U V W . . ",
". . X Y Z `  ...+.@.#.$.%.&.*.&.=.-.. . ",
". . ;.>.,.'.).!.~.{.].^./.(._.:.<.[.. . ",
". . }.|.1.(.2.3.4.5._.6._.7.8.{.9.0.. . ",
". . a.b.c.d.d.:._./._.6.2._.e.=.f.g.. . ",
". . h.i.|.j.k._._.l._.m.n.6.o.p.q.h.. . ",
". . + r.s.|.t.u.v.w.4.x.y.z.A.B.C.+ . . ",
". . + + D.E.F.|.|.|.|.G.H.I.J.K.+ + . . ",
". . + + + L.M.N.O.O.P.Q.R.S.T.+ + + . . ",
". . + + + + + @ U.V.W.X.Y.+ + + + + . . ",
". . . . . . . . . . . . . . . . . . . . ",
". . . . . . . . . . . . . . . . . . . . "};
