/* XPM */
static char * color_scheme_jupiter_xpm[] = {
"20 20 190 2",
"  	c None",
". 	c #444C3B",
"+ 	c #000000",
"@ 	c #515545",
"# 	c #90997D",
"$ 	c #98A183",
"% 	c #97A082",
"& 	c #959F81",
"* 	c #8F9B7C",
"= 	c #828E71",
"- 	c #464D3C",
"; 	c #929A7E",
"> 	c #9DA688",
", 	c #9BA386",
"' 	c #98A184",
") 	c #95A081",
"! 	c #929E7E",
"~ 	c #8F9C7C",
"{ 	c #8D9A7A",
"] 	c #8A9877",
"^ 	c #7A8969",
"/ 	c #9AA185",
"( 	c #9DA588",
"_ 	c #97A184",
": 	c #939E7F",
"< 	c #909B7C",
"[ 	c #8C9A7A",
"} 	c #8A9777",
"| 	c #879675",
"1 	c #849472",
"2 	c #7A8B6B",
"3 	c #9AA386",
"4 	c #959F80",
"5 	c #929D7E",
"6 	c #8D997A",
"7 	c #899878",
"8 	c #879575",
"9 	c #849473",
"0 	c #829270",
"a 	c #7E8F6D",
"b 	c #6F805F",
"c 	c #515546",
"d 	c #9CA387",
"e 	c #99A284",
"f 	c #919C7D",
"g 	c #8E9A7B",
"h 	c #8B9978",
"i 	c #899676",
"j 	c #859473",
"k 	c #839272",
"l 	c #80916F",
"m 	c #7D8E6C",
"n 	c #7C8D69",
"o 	c #798B67",
"p 	c #394431",
"q 	c #8C9177",
"r 	c #91957B",
"s 	c #8F9379",
"t 	c #8F9479",
"u 	c #8C9277",
"v 	c #8C9477",
"w 	c #899275",
"x 	c #858E71",
"y 	c #848F72",
"z 	c #818E6F",
"A 	c #808F6E",
"B 	c #7D8C6C",
"C 	c #7C8A6A",
"D 	c #798967",
"E 	c #768865",
"F 	c #687A59",
"G 	c #96A081",
"H 	c #969F81",
"I 	c #939D7F",
"J 	c #8F997C",
"K 	c #8D9779",
"L 	c #869173",
"M 	c #838D6F",
"N 	c #828D6E",
"O 	c #7F8B6C",
"P 	c #7D886A",
"Q 	c #7B8668",
"R 	c #788566",
"S 	c #778465",
"T 	c #758262",
"U 	c #6E805E",
"V 	c #939C7F",
"W 	c #929A7D",
"X 	c #919B7C",
"Y 	c #8D997B",
"Z 	c #8B9877",
"` 	c #889675",
" .	c #80906E",
"..	c #7C8D6C",
"+.	c #7B8B6A",
"@.	c #788A67",
"#.	c #758864",
"$.	c #728762",
"%.	c #708461",
"&.	c #6C825E",
"*.	c #8C9176",
"=.	c #888F74",
"-.	c #868D71",
";.	c #869072",
">.	c #848F71",
",.	c #818D6F",
"'.	c #7B8467",
").	c #798466",
"!.	c #778365",
"~.	c #748462",
"{.	c #718161",
"].	c #6F7E5E",
"^.	c #6E7B5C",
"/.	c #8D9879",
"(.	c #8D987A",
"_.	c #8B9777",
":.	c #838E71",
"<.	c #818D6E",
"[.	c #7C8A6B",
"}.	c #7A8668",
"|.	c #798366",
"1.	c #778164",
"2.	c #718160",
"3.	c #6F805E",
"4.	c #6B7F5C",
"5.	c #647B56",
"6.	c #80896C",
"7.	c #878F72",
"8.	c #828C6F",
"9.	c #818A6E",
"0.	c #7E876B",
"a.	c #7C896A",
"b.	c #7A8868",
"c.	c #778867",
"d.	c #758664",
"e.	c #728462",
"f.	c #708360",
"g.	c #6D825E",
"h.	c #6C7E5C",
"i.	c #6C7B5B",
"j.	c #5C704E",
"k.	c #879374",
"l.	c #859171",
"m.	c #818F6F",
"n.	c #7F886B",
"o.	c #7C886A",
"p.	c #7A8867",
"q.	c #778666",
"r.	c #758364",
"s.	c #748162",
"t.	c #728061",
"u.	c #6E7D5C",
"v.	c #6A7D5A",
"w.	c #697A58",
"x.	c #303E29",
"y.	c #778667",
"z.	c #81916F",
"A.	c #7E906D",
"B.	c #7C8E6B",
"C.	c #7A8C68",
"D.	c #748764",
"E.	c #728662",
"F.	c #6F8460",
"G.	c #69815B",
"H.	c #677E59",
"I.	c #637C56",
"J.	c #546D49",
"K.	c #7A8A69",
"L.	c #7A8D69",
"M.	c #778B67",
"N.	c #6B835D",
"O.	c #6A815B",
"P.	c #667F59",
"Q.	c #647D56",
"R.	c #59754E",
"S.	c #6D7F5E",
"T.	c #748964",
"U.	c #6F855F",
"V.	c #6C835E",
"W.	c #667F58",
"X.	c #637D56",
"Y.	c #546E48",
"Z.	c #384430",
"`.	c #647956",
" +	c #6B825D",
".+	c #6B815C",
"++	c #67805A",
"@+	c #627C54",
"#+	c #57704B",
"$+	c #2D3C27",
". . . . . . . . . . . . . . . . . . . . ",
". + + + + + + + + + + + + + + + + + + . ",
". + + + + + @ # $ % & * = - + + + + + . ",
". + + + + ; > , ' ) ! ~ { ] ^ + + + + . ",
". + + + / ( , _ & : < [ } | 1 2 + + + . ",
". + + ; ( 3 _ 4 5 * 6 7 8 9 0 a b + + . ",
". + c d e % : f g h i j k l m n o p + . ",
". + q r s t u v w x y z A B C D E F + . ",
". + G H I J K w L M N O P Q R S T U + . ",
". + V W X Y Z ` j 0  ...+.@.#.$.%.&.+ . ",
". + u *.=.-.;.>.,.O P '.).!.~.{.].^.+ . ",
". + /.(._.8 :.<.O [.}.|.1.T 2.3.4.5.+ . ",
". + 6.7.x 8.9.0.a.b.c.d.e.f.g.h.i.j.+ . ",
". + . k.l.m.n.o.p.q.r.s.t.].u.v.w.x.+ . ",
". + + y.z.A.B.C.@.D.E.F.&.G.H.I.J.+ + . ",
". + + + K.m L.M.#.$.F.N.O.P.Q.R.+ + + . ",
". + + + + S.M.T.E.U.V.G.W.X.Y.+ + + + . ",
". + + + + + Z.`. +.+++@+#+$++ + + + + . ",
". + + + + + + + + + + + + + + + + + + . ",
". . . . . . . . . . . . . . . . . . . . "};
