/* XPM */
static char * color_scheme_super_mario_bros_xpm[] = {
"20 20 13 1",
" 	c #281F18",
".	c #6285FB",
"+	c #6386FB",
"@	c #FAB000",
"#	c #FBB100",
"$	c #6386FC",
"%	c #DC0000",
"&	c #DB0000",
"*	c #6385FB",
"=	c #716800",
"-	c #716900",
";	c #706800",
">	c #FAB100",
"                    ",
"                    ",
"  ..+++++++++++@##  ",
"  ++$+++%%&&%++###  ",
"  $.+*+%&%&&%%&&##  ",
"  ++.+.=-=##=#.=;=  ",
"  ++*.-#=###-##--=  ",
"  *++.-#--###;###-  ",
"  *..+=-####=--;;+  ",
"  .+**+.>>#####-.+  ",
"  *+=----%--=%-*..  ",
"  .-------%===&+$-  ",
"  #@==----&%&%&++-  ",
"  ##>+%%-&&#&%#&-=  ",
"  +#+-&&&&%%&&&%--  ",
"  .+---&&%%%&%&&==  ",
"  +=;-%%%&%&%..*++  ",
"  +-+.%&%%*+++++++  ",
"                    ",
"                    "};
