/* XPM */
static char * color_scheme_ubuntu_radiance_xpm[] = {
"20 20 4 1",
" 	c None",
".	c #D6D6D6",
"+	c #E8E8E8",
"@	c #E96F20",
"....................",
"....................",
"..++++++++@@@@@@@@..",
"..++++++++@@@@@@@@..",
"..++++++++@@@@@@@@..",
"..++++++++@@@@@@@@..",
"..++++++++@@@@@@@@..",
"..++++++++@@@@@@@@..",
"..++++++++@@@@@@@@..",
"..++++++++@@@@@@@@..",
"..++++++++@@@@@@@@..",
"..++++++++@@@@@@@@..",
"..++++++++@@@@@@@@..",
"..++++++++@@@@@@@@..",
"..++++++++@@@@@@@@..",
"..++++++++@@@@@@@@..",
"..++++++++@@@@@@@@..",
"..++++++++@@@@@@@@..",
"....................",
"...................."};
